<svg width="1753" height="534" viewBox="0 0 1753 534" fill="none" xmlns="http://www.w3.org/2000/svg">
<path d="M694.545 361.25C679.545 361.25 665.962 359.5 653.795 356C641.795 352.5 631.378 347.25 622.545 340.25C613.878 333.25 607.212 324.583 602.545 314.25C597.878 303.917 595.545 292 595.545 278.5C595.545 264.833 597.962 252.75 602.795 242.25C607.795 231.583 614.795 222.583 623.795 215.25C632.962 207.917 643.795 202.417 656.295 198.75C668.962 194.917 682.962 193 698.295 193C716.462 193 732.128 195.583 745.295 200.75C758.462 205.75 768.795 212.833 776.295 222C783.962 231.167 788.295 242.083 789.295 254.75H757.295C755.128 248.083 751.545 242.333 746.545 237.5C741.712 232.5 735.295 228.667 727.295 226C719.295 223.167 709.628 221.75 698.295 221.75C683.795 221.75 671.378 224.083 661.045 228.75C650.878 233.417 643.128 240 637.795 248.5C632.462 257 629.795 267 629.795 278.5C629.795 289.667 632.128 299.333 636.795 307.5C641.462 315.5 648.628 321.667 658.295 326C668.128 330.333 680.628 332.5 695.795 332.5C707.462 332.5 717.712 331 726.545 328C735.545 324.833 743.045 320.667 749.045 315.5C755.045 310.167 759.295 304.25 761.795 297.75L774.795 293C772.628 314.5 764.462 331.25 750.295 343.25C736.295 355.25 717.712 361.25 694.545 361.25ZM766.295 358C766.295 352.833 766.628 346.917 767.295 340.25C767.962 333.417 768.795 326.583 769.795 319.75C770.795 312.75 771.712 306.333 772.545 300.5H698.545V279.25H795.045V358H766.295ZM828.311 183.75H860.811V358H828.311V183.75ZM930.932 179.25V207.75H893.182V179.25H930.932ZM895.682 233.75H928.182V358H895.682V233.75ZM1021.08 360.75C1008.58 360.75 997.243 358.083 987.076 352.75C977.076 347.25 969.16 339.667 963.326 330C957.493 320.167 954.576 308.833 954.576 296C954.576 282.833 957.41 271.417 963.076 261.75C968.91 252.083 976.826 244.583 986.826 239.25C996.826 233.75 1008.24 231 1021.08 231C1032.24 231 1041.74 232.667 1049.58 236C1057.41 239.333 1063.74 244 1068.58 250C1073.41 255.833 1076.91 262.667 1079.08 270.5C1081.41 278.333 1082.58 286.833 1082.58 296C1082.58 303.333 1081.41 310.833 1079.08 318.5C1076.74 326 1073.16 333 1068.33 339.5C1063.49 345.833 1057.16 351 1049.33 355C1041.49 358.833 1032.08 360.75 1021.08 360.75ZM1031.58 335.75C1041.41 335.75 1049.91 334.083 1057.08 330.75C1064.24 327.417 1069.74 322.75 1073.58 316.75C1077.41 310.75 1079.33 303.833 1079.33 296C1079.33 287.5 1077.33 280.333 1073.33 274.5C1069.49 268.5 1063.99 263.917 1056.83 260.75C1049.83 257.583 1041.41 256 1031.58 256C1017.74 256 1006.99 259.667 999.326 267C991.66 274.333 987.826 284 987.826 296C987.826 304 989.66 311 993.326 317C996.993 322.833 1002.08 327.417 1008.58 330.75C1015.24 334.083 1022.91 335.75 1031.58 335.75ZM1079.33 183.75H1111.83V358H1081.58C1081.08 354.167 1080.58 349.25 1080.08 343.25C1079.58 337.083 1079.33 331.333 1079.33 326V183.75ZM1260.11 316.75H1291.61C1290.27 325.25 1286.69 332.833 1280.86 339.5C1275.19 346.167 1267.44 351.417 1257.61 355.25C1247.77 359.083 1235.77 361 1221.61 361C1205.77 361 1191.77 358.5 1179.61 353.5C1167.44 348.333 1157.94 340.917 1151.11 331.25C1144.27 321.583 1140.86 309.917 1140.86 296.25C1140.86 282.583 1144.19 270.917 1150.86 261.25C1157.52 251.417 1166.77 243.917 1178.61 238.75C1190.61 233.583 1204.61 231 1220.61 231C1236.94 231 1250.52 233.583 1261.36 238.75C1272.19 243.917 1280.19 251.75 1285.36 262.25C1290.69 272.583 1292.94 285.833 1292.11 302H1173.61C1174.44 308.333 1176.77 314.083 1180.61 319.25C1184.61 324.417 1189.94 328.5 1196.61 331.5C1203.44 334.5 1211.52 336 1220.86 336C1231.19 336 1239.77 334.25 1246.61 330.75C1253.61 327.083 1258.11 322.417 1260.11 316.75ZM1219.11 255.75C1207.11 255.75 1197.36 258.417 1189.86 263.75C1182.36 268.917 1177.52 275.333 1175.36 283H1259.86C1259.02 274.667 1255.02 268.083 1247.86 263.25C1240.86 258.25 1231.27 255.75 1219.11 255.75ZM1505.59 196.25H1546.09L1469.59 285.5L1468.59 286.5L1411.84 358H1371.34L1450.09 264.25L1450.84 263.5L1505.59 196.25ZM1414.34 196.25L1468.34 264L1468.84 264.75L1546.84 358H1504.59L1448.59 285.5L1447.84 285L1373.84 196.25H1414.34ZM1604.66 305.5V279H1678.66C1687.49 279 1694.49 276.667 1699.66 272C1704.83 267.167 1707.41 260.5 1707.41 252C1707.41 243.167 1704.83 236.417 1699.66 231.75C1694.49 227.083 1687.49 224.75 1678.66 224.75H1608.66V358H1575.41V196.25H1675.66C1684.66 196.25 1693.08 197.333 1700.91 199.5C1708.91 201.667 1715.83 205 1721.66 209.5C1727.66 214 1732.33 219.75 1735.66 226.75C1738.99 233.75 1740.66 242.167 1740.66 252C1740.66 261.667 1738.99 269.917 1735.66 276.75C1732.33 283.583 1727.66 289.167 1721.66 293.5C1715.83 297.667 1708.91 300.75 1700.91 302.75C1693.08 304.583 1684.66 305.5 1675.66 305.5H1604.66ZM952.96 457V446.4H982.56C986.093 446.4 988.893 445.467 990.96 443.6C993.026 441.667 994.06 439 994.06 435.6C994.06 432.067 993.026 429.367 990.96 427.5C988.893 425.633 986.093 424.7 982.56 424.7H954.56V478H941.26V413.3H981.36C984.96 413.3 988.326 413.733 991.46 414.6C994.66 415.467 997.426 416.8 999.76 418.6C1002.16 420.4 1004.03 422.7 1005.36 425.5C1006.69 428.3 1007.36 431.667 1007.36 435.6C1007.36 439.467 1006.69 442.767 1005.36 445.5C1004.03 448.233 1002.16 450.467 999.76 452.2C997.426 453.867 994.66 455.1 991.46 455.9C988.326 456.633 984.96 457 981.36 457H952.96ZM1018.18 428.3H1031.18V478H1018.18V428.3ZM1050.28 439C1046.54 439 1043.31 439.733 1040.58 441.2C1037.84 442.6 1035.64 444.333 1033.98 446.4C1032.31 448.467 1031.14 450.467 1030.48 452.4L1030.38 446.9C1030.44 446.1 1030.71 444.933 1031.18 443.4C1031.64 441.8 1032.34 440.1 1033.28 438.3C1034.21 436.433 1035.44 434.667 1036.98 433C1038.51 431.267 1040.38 429.867 1042.58 428.8C1044.78 427.733 1047.34 427.2 1050.28 427.2V439ZM1087.61 479.2C1081.35 479.2 1075.81 478.2 1071.01 476.2C1066.28 474.2 1062.58 471.3 1059.91 467.5C1057.25 463.633 1055.91 458.9 1055.91 453.3C1055.91 447.7 1057.25 442.967 1059.91 439.1C1062.58 435.167 1066.28 432.2 1071.01 430.2C1075.81 428.2 1081.35 427.2 1087.61 427.2C1093.88 427.2 1099.35 428.2 1104.01 430.2C1108.75 432.2 1112.45 435.167 1115.11 439.1C1117.78 442.967 1119.11 447.7 1119.11 453.3C1119.11 458.9 1117.78 463.633 1115.11 467.5C1112.45 471.3 1108.75 474.2 1104.01 476.2C1099.35 478.2 1093.88 479.2 1087.61 479.2ZM1087.61 469.2C1091.08 469.2 1094.18 468.6 1096.91 467.4C1099.71 466.133 1101.91 464.333 1103.51 462C1105.11 459.6 1105.91 456.7 1105.91 453.3C1105.91 449.9 1105.11 447 1103.51 444.6C1101.91 442.133 1099.75 440.267 1097.01 439C1094.28 437.733 1091.15 437.1 1087.61 437.1C1084.15 437.1 1081.01 437.733 1078.21 439C1075.41 440.267 1073.18 442.1 1071.51 444.5C1069.91 446.9 1069.11 449.833 1069.11 453.3C1069.11 456.7 1069.91 459.6 1071.51 462C1073.11 464.333 1075.31 466.133 1078.11 467.4C1080.91 468.6 1084.08 469.2 1087.61 469.2ZM1124.54 428.3H1163.14V438.4H1124.54V428.3ZM1137.34 414.7H1150.34V478H1137.34V414.7ZM1200.02 479.2C1193.75 479.2 1188.22 478.2 1183.42 476.2C1178.68 474.2 1174.98 471.3 1172.32 467.5C1169.65 463.633 1168.32 458.9 1168.32 453.3C1168.32 447.7 1169.65 442.967 1172.32 439.1C1174.98 435.167 1178.68 432.2 1183.42 430.2C1188.22 428.2 1193.75 427.2 1200.02 427.2C1206.28 427.2 1211.75 428.2 1216.42 430.2C1221.15 432.2 1224.85 435.167 1227.52 439.1C1230.18 442.967 1231.52 447.7 1231.52 453.3C1231.52 458.9 1230.18 463.633 1227.52 467.5C1224.85 471.3 1221.15 474.2 1216.42 476.2C1211.75 478.2 1206.28 479.2 1200.02 479.2ZM1200.02 469.2C1203.48 469.2 1206.58 468.6 1209.32 467.4C1212.12 466.133 1214.32 464.333 1215.92 462C1217.52 459.6 1218.32 456.7 1218.32 453.3C1218.32 449.9 1217.52 447 1215.92 444.6C1214.32 442.133 1212.15 440.267 1209.42 439C1206.68 437.733 1203.55 437.1 1200.02 437.1C1196.55 437.1 1193.42 437.733 1190.62 439C1187.82 440.267 1185.58 442.1 1183.92 444.5C1182.32 446.9 1181.52 449.833 1181.52 453.3C1181.52 456.7 1182.32 459.6 1183.92 462C1185.52 464.333 1187.72 466.133 1190.52 467.4C1193.32 468.6 1196.48 469.2 1200.02 469.2ZM1300.13 458.4C1299.79 462.733 1298.39 466.467 1295.93 469.6C1293.53 472.733 1290.19 475.133 1285.93 476.8C1281.66 478.4 1276.59 479.2 1270.73 479.2C1264.59 479.2 1259.09 478.233 1254.23 476.3C1249.43 474.3 1245.63 471.4 1242.83 467.6C1240.09 463.733 1238.73 458.967 1238.73 453.3C1238.73 447.633 1240.09 442.867 1242.83 439C1245.63 435.133 1249.43 432.2 1254.23 430.2C1259.09 428.2 1264.59 427.2 1270.73 427.2C1276.59 427.2 1281.63 428.033 1285.83 429.7C1290.03 431.3 1293.33 433.633 1295.73 436.7C1298.19 439.767 1299.63 443.467 1300.03 447.8H1288.13C1286.99 444.467 1284.89 441.867 1281.83 440C1278.76 438.133 1275.06 437.2 1270.73 437.2C1267.26 437.2 1264.09 437.8 1261.23 439C1258.43 440.2 1256.16 442 1254.43 444.4C1252.76 446.733 1251.93 449.7 1251.93 453.3C1251.93 456.833 1252.76 459.8 1254.43 462.2C1256.09 464.533 1258.36 466.3 1261.23 467.5C1264.09 468.633 1267.26 469.2 1270.73 469.2C1275.39 469.2 1279.19 468.267 1282.13 466.4C1285.13 464.533 1287.16 461.867 1288.23 458.4H1300.13ZM1338.98 479.2C1332.71 479.2 1327.18 478.2 1322.38 476.2C1317.65 474.2 1313.95 471.3 1311.28 467.5C1308.61 463.633 1307.28 458.9 1307.28 453.3C1307.28 447.7 1308.61 442.967 1311.28 439.1C1313.95 435.167 1317.65 432.2 1322.38 430.2C1327.18 428.2 1332.71 427.2 1338.98 427.2C1345.25 427.2 1350.71 428.2 1355.38 430.2C1360.11 432.2 1363.81 435.167 1366.48 439.1C1369.15 442.967 1370.48 447.7 1370.48 453.3C1370.48 458.9 1369.15 463.633 1366.48 467.5C1363.81 471.3 1360.11 474.2 1355.38 476.2C1350.71 478.2 1345.25 479.2 1338.98 479.2ZM1338.98 469.2C1342.45 469.2 1345.55 468.6 1348.28 467.4C1351.08 466.133 1353.28 464.333 1354.88 462C1356.48 459.6 1357.28 456.7 1357.28 453.3C1357.28 449.9 1356.48 447 1354.88 444.6C1353.28 442.133 1351.11 440.267 1348.38 439C1345.65 437.733 1342.51 437.1 1338.98 437.1C1335.51 437.1 1332.38 437.733 1329.58 439C1326.78 440.267 1324.55 442.1 1322.88 444.5C1321.28 446.9 1320.48 449.833 1320.48 453.3C1320.48 456.7 1321.28 459.6 1322.88 462C1324.48 464.333 1326.68 466.133 1329.48 467.4C1332.28 468.6 1335.45 469.2 1338.98 469.2ZM1381.09 408.3H1394.09V478H1381.09V408.3Z" fill="#073020"/>
<path d="M187.022 211.928L279.302 157.78C283.58 155.952 288.184 155.009 292.836 155.009C297.489 155.009 302.093 155.952 306.371 157.78L398.651 211.928L402.343 214.389H403.573L511.849 270.999V189.776C511.578 181.132 509.194 172.686 504.904 165.177C500.614 157.668 494.549 151.326 487.241 146.704L420.799 108.554L413.416 103.631L243.62 6.41036C236.099 2.2069 227.628 0 219.012 0C210.397 0 201.925 2.2069 194.404 6.41036L25.8385 103.631C18.0623 107.829 11.5595 114.044 7.01304 121.623C2.46658 129.202 0.0441176 137.866 0 146.704V342.376C0.290048 351.161 2.815 359.726 7.33619 367.263C11.8574 374.8 18.2255 381.059 25.8385 385.449L91.05 423.599L98.4324 428.522L268.228 525.743C275.512 530.61 284.076 533.209 292.836 533.209C301.597 533.209 310.161 530.61 317.445 525.743L487.241 428.522C494.625 423.982 500.749 417.658 505.049 410.131C509.349 402.604 511.687 394.117 511.849 385.449V298.073L438.024 258.693L338.361 202.083V299.304C338.051 303.649 336.648 307.846 334.282 311.504C331.916 315.161 328.663 318.161 324.827 320.225L232.547 374.373C228.477 376.17 224.076 377.099 219.627 377.099C215.178 377.099 210.778 376.17 206.708 374.373L182.1 359.606C179.654 357.211 177.734 354.333 176.462 351.154C175.191 347.976 174.597 344.567 174.718 341.146V234.08C174.806 229.664 175.974 225.336 178.119 221.475C180.263 217.614 183.32 214.336 187.022 211.928ZM168.566 379.296L175.948 384.218L268.228 437.136L271.92 439.597L232.547 462.98C228.477 464.777 224.076 465.705 219.627 465.705C215.178 465.705 210.778 464.777 206.708 462.98L105.815 403.909C103.204 401.576 101.094 398.737 99.6133 395.563C98.1327 392.39 97.3124 388.949 97.202 385.449V337.454L102.124 341.146L168.566 379.296ZM292.836 66.712C297.586 66.7869 302.241 68.0566 306.371 70.4039L407.264 128.244C409.711 130.638 411.631 133.517 412.902 136.695C414.173 139.874 414.767 143.283 414.647 146.704V189.776L343.283 152.857L337.131 147.935L243.62 95.0168L239.929 92.5555L279.302 70.4039C283.432 68.0566 288.087 66.7869 292.836 66.712ZM488.471 189.776V232.849L438.024 207.005V146.704L474.936 167.625C478.946 169.795 482.309 172.987 484.686 176.878C487.063 180.768 488.369 185.218 488.471 189.776ZM24.6081 342.376V146.704C24.4579 142.243 25.5236 137.825 27.6909 133.923C29.8583 130.021 33.0458 126.782 36.9122 124.552L206.708 26.1007C210.384 23.745 214.647 22.4661 219.012 22.4087C223.786 22.2999 228.489 23.5826 232.547 26.1007L270.689 48.2523H268.228L98.4324 146.704C91.1239 151.326 85.0593 157.668 80.7694 165.177C76.4794 172.686 74.0948 181.132 73.8243 189.776V385.449L36.9122 364.528C33.2103 362.12 30.1537 358.842 28.0091 354.981C25.8644 351.12 24.6968 346.793 24.6081 342.376ZM488.471 311.61V385.449C488.656 390.066 487.469 394.634 485.06 398.576C482.651 402.519 479.128 405.659 474.936 407.601L306.371 506.052C302.256 508.429 297.588 509.68 292.836 509.68C288.085 509.68 283.417 508.429 279.302 506.052L242.39 483.901H243.62L413.416 386.68C420.725 382.058 426.789 375.715 431.079 368.206C435.369 360.697 437.754 352.251 438.024 343.607V284.536L488.471 311.61ZM337.131 341.146C344.44 336.524 350.504 330.181 354.794 322.672C359.084 315.164 361.469 306.717 361.739 298.073V240.233L412.186 269.768V341.146C411.952 345.839 410.602 350.409 408.248 354.476C405.894 358.542 402.604 361.989 398.651 364.528L306.371 417.446C302.256 419.822 297.588 421.073 292.836 421.073C288.085 421.073 283.417 419.822 279.302 417.446L242.39 395.294H243.62L337.131 341.146ZM151.34 234.08V341.146L113.197 320.225C109.495 317.816 106.439 314.539 104.294 310.678C102.15 306.817 100.982 302.489 100.893 298.073V191.007C100.743 186.546 101.809 182.128 103.976 178.226C106.143 174.324 109.331 171.085 113.197 168.856L206.708 114.707C210.592 112.311 215.065 111.042 219.627 111.042C224.19 111.042 228.663 112.311 232.547 114.707L270.689 136.859H268.228L175.948 189.776C168.304 194.334 162.001 200.833 157.679 208.614C153.357 216.394 151.17 225.18 151.34 234.08Z" fill="#C8FF6B"/>
</svg>
